<?xml version="1.0" standalone="no"?>
<!DOCTYPE svg PUBLIC "-//W3C//DTD SVG 20010904//EN"
 "http://www.w3.org/TR/2001/REC-SVG-20010904/DTD/svg10.dtd">
<svg version="1.0" xmlns="http://www.w3.org/2000/svg"
 width="319.000000pt" height="319.000000pt" viewBox="0 0 319.000000 319.000000"
 preserveAspectRatio="xMidYMid meet">
<metadata>
Created by potrace 1.11, written by Peter Selinger 2001-2013
</metadata>
<g transform="translate(0.000000,319.000000) scale(0.100000,-0.100000)"
fill="#000000" stroke="none">
<path d="M170 3017 c0 -6 213 -651 473 -1432 l474 -1420 356 -3 356 -2 11 42
c16 62 28 95 29 78 0 -8 -6 -39 -13 -68 l-14 -52 311 0 312 0 198 198 197 197
0 440 0 440 -198 198 -197 197 -92 0 -92 0 -11 -42 c-16 -61 -28 -95 -29 -79
-1 7 46 194 104 414 58 220 105 406 105 414 0 20 -525 19 -533 -1 -3 -8 -47
-174 -98 -370 -51 -196 -94 -354 -97 -352 -2 3 2 30 9 61 l12 56 -36 37 -37
38 0 190 0 189 88 88 87 87 508 0 507 0 0 235 0 235 -633 0 -632 0 -198 -198
-197 -197 0 -444 0 -445 183 -184 c100 -101 189 -188 198 -193 15 -7 20 4 40
84 12 50 24 87 26 80 4 -11 -190 -770 -206 -808 -7 -16 -10 -17 -15 -5 -3 8
-156 503 -341 1100 -185 597 -345 1113 -356 1148 l-21 62 -269 0 c-209 0 -269
-3 -269 -13z m2007 -1576 c-3 -16 -9 -40 -13 -55 -6 -23 -3 -26 22 -26 23 0
48 -19 121 -92 l93 -93 0 -180 0 -180 -92 -92 -93 -93 -125 0 -126 0 -19 -77
c-10 -43 -20 -73 -22 -66 -4 12 247 983 255 983 2 0 2 -13 -1 -29z"/>
</g>
</svg>
